<?xml version="1.0" encoding="UTF-8"?>
<svg id="Camada_2" data-name="Camada 2" xmlns="http://www.w3.org/2000/svg" viewBox="0 0 208.26 208.26">
  <defs>
    <style>
      .cls-1 {
        fill: #0b0401;
      }

      .cls-1, .cls-2 {
        stroke-width: 0px;
      }

      .cls-2 {
        fill: #f26419;
      }
    </style>
  </defs>
  <g id="Camada_1-2" data-name="Camada 1">
    <rect class="cls-1" width="208.26" height="208.26" rx="30" ry="30"/>
    <g>
      <path class="cls-2" d="m105.06,69.65c-19.34-.37-35.08,14.98-35.37,33.83-.3,19.41,14.89,34.94,34.35,35.19,18.65.13,34.44-15,34.64-34.22.19-18.67-15.1-34.44-33.63-34.8Zm-12.35,44.82c1.3,1.45,2.34,2.96,2.5,4.95.22,2.84-1.28,5.58-3.73,6.77-2.71,1.31-5.79.91-7.94-1.19-4.5-4.4-7.23-9.76-8.26-15.96-.28-1.63-.37-3.29-.47-4.16.17-8.7,2.85-15.57,8.4-21.26,2.85-2.92,7.04-3.03,9.96-.3,2.71,2.54,2.85,6.93.14,9.8-2.33,2.47-3.89,5.27-4.4,8.61-.75,4.84.55,9.12,3.8,12.74Z"/>
      <path class="cls-2" d="m151.62,161.43l-11.85-11.87h0c-1.84-1.84-3.68-3.68-5.51-5.52-.35-.35-.65-.77-.99-1.17-12.31,8.81-25.75,11.68-40.32,8.33-12.14-2.8-21.73-9.57-28.78-19.84-13.04-19.02-11-45.79,7.04-62.65,18.08-16.89,45.72-16.97,64.08-1.66,18.43,15.37,23.74,44.24,7.65,66.12,2.53,2.51,5.09,5.03,7.63,7.55h0s.44.44.44.44c.23.23.47.46.7.7,3.12,3.1,6.24,6.2,9.32,9.34l5.07,5.07c11.86-14.09,19.01-32.27,19.01-52.13,0-44.73-36.26-80.99-80.99-80.99S23.14,59.4,23.14,104.13s36.26,80.99,80.99,80.99c19.95,0,38.21-7.22,52.33-19.18l-4.84-4.52Z"/>
    </g>
  </g>
</svg>