<?xml version="1.0" encoding="UTF-8"?>
<svg id="Camada_2" data-name="Camada 2" xmlns="http://www.w3.org/2000/svg" viewBox="0 0 524.67 208.26">
  <defs>
    <style>
      .cls-1 {
        fill: #f26419;
        stroke-width: 0px;
      }
    </style>
  </defs>
  <g id="Camada_1-2" data-name="Camada 1">
    <path class="cls-1" d="m105.33,59.79c-24.86-.47-45.1,19.26-45.47,43.5-.39,24.96,19.15,44.92,44.17,45.24,23.98.17,44.28-19.29,44.54-44,.25-24-19.41-44.28-43.24-44.74Zm-15.88,57.63c1.67,1.86,3.01,3.8,3.21,6.37.28,3.65-1.65,7.17-4.8,8.71-3.49,1.69-7.45,1.17-10.21-1.53-5.79-5.66-9.29-12.55-10.62-20.52-.36-2.1-.48-4.23-.6-5.35.22-11.18,3.66-20.02,10.8-27.34,3.67-3.76,9.05-3.9,12.81-.39,3.49,3.26,3.66,8.91.18,12.6-2.99,3.17-5,6.78-5.66,11.07-.96,6.22.71,11.72,4.89,16.38Z"/>
    <path class="cls-1" d="m165.18,177.8l-15.23-15.26h0c-2.36-2.37-4.73-4.73-7.09-7.1-.45-.46-.83-.99-1.27-1.51-15.83,11.33-33.11,15.02-51.84,10.71-15.6-3.59-27.94-12.31-37-25.51-16.77-24.45-14.15-58.88,9.05-80.55,23.25-21.72,58.78-21.82,82.39-2.13,23.7,19.76,30.52,56.88,9.84,85.01,3.26,3.22,6.54,6.46,9.81,9.71h0s.57.57.57.57c.3.3.6.6.9.89,4.01,3.99,8.03,7.97,11.98,12l6.52,6.52c15.25-18.11,24.44-41.49,24.44-67.02C208.26,46.62,161.64,0,104.13,0S0,46.62,0,104.13s46.62,104.13,104.13,104.13c25.65,0,49.13-9.28,67.28-24.66l-6.23-5.81Z"/>
    <path class="cls-1" d="m250.74,101.4c18.34,0,29.29-10.64,29.29-28.47v-27.65c0-2.88-2.34-5.23-5.23-5.23h-11.34c-2.88,0-5.23,2.35-5.23,5.23v27.08c0,9.39-3.92,10.6-7.33,10.6s-7.33-1.2-7.33-10.6v-27.08c0-2.88-2.34-5.23-5.23-5.23h-11.67c-2.88,0-5.23,2.35-5.23,5.23v27.65c0,17.83,10.95,28.47,29.29,28.47Z"/>
    <path class="cls-1" d="m340.01,40.05h-11.18c-2.88,0-5.23,2.35-5.23,5.23v11.68c0,1.24-.81,1.97-1.58,2.25-.76.28-1.86.23-2.65-.71l-13.86-16.57c-1-1.19-2.46-1.87-4.01-1.87h-10.26c-2.88,0-5.23,2.35-5.23,5.23v49.59c0,2.88,2.34,5.23,5.23,5.23h11.18c2.88,0,5.23-2.35,5.23-5.23v-11.68c0-1.24.81-1.97,1.58-2.25.76-.28,1.86-.23,2.65.71l13.86,16.57c1,1.19,2.46,1.87,4.01,1.87h10.26c2.88,0,5.23-2.35,5.23-5.23v-49.59c0-2.88-2.34-5.23-5.23-5.23Z"/>
    <path class="cls-1" d="m382.41,38.74c-19.52,0-33.7,13.18-33.7,31.33s14.18,31.33,33.7,31.33,33.7-13.17,33.7-31.33-14.17-31.33-33.7-31.33Zm0,44.22c-6.72,0-11.41-5.3-11.41-12.89s4.69-12.88,11.41-12.88,11.42,5.3,11.42,12.88-4.7,12.89-11.42,12.89Z"/>
    <path class="cls-1" d="m274.89,138.34c-.61-.45-.99-1.13-1.05-1.85-.05-.65.16-1.26.61-1.73,2.63-2.73,4.02-6.26,4.02-10.22,0-10.25-9.18-16.37-24.55-16.37h-26.75c-2.88,0-5.23,2.34-5.23,5.23v49.59c0,2.88,2.34,5.23,5.23,5.23h28.39c16.27,0,25.61-6.27,25.61-17.19,0-5.24-2.17-9.62-6.28-12.68Zm-23.58-8.19h-5.18c-1.32,0-2.39-1.07-2.39-2.39v-.88c0-1.32,1.07-2.39,2.39-2.39h5.18c4.88,0,4.88,1.91,4.88,2.83s0,2.83-4.88,2.83Zm-7.57,17.98c0-1.32,1.07-2.39,2.39-2.39h7.79c4.96,0,4.96,2.24,4.96,3.08s0,3.08-4.96,3.08h-7.79c-1.32,0-2.39-1.07-2.39-2.39v-1.37Z"/>
    <path class="cls-1" d="m337.07,108.17h-11.34c-2.88,0-5.23,2.34-5.23,5.23v27.08c0,9.39-3.92,10.6-7.33,10.6s-7.33-1.21-7.33-10.6v-27.08c0-2.88-2.34-5.23-5.23-5.23h-11.67c-2.88,0-5.23,2.34-5.23,5.23v27.65c0,17.83,10.95,28.47,29.29,28.47s29.29-10.64,29.29-28.47v-27.65c0-2.88-2.34-5.23-5.23-5.23Z"/>
    <path class="cls-1" d="m375.48,129.58c-3.72-.74-8.35-1.67-8.35-3,0-1.97,4.21-2.18,6.02-2.18,3.79,0,7.81.86,11.95,2.56,2.66,1.09,5.71-.18,6.81-2.83l2.91-7c.54-1.3.54-2.72,0-4.02-.53-1.29-1.54-2.29-2.82-2.82-5.36-2.22-11.99-3.44-18.68-3.44-17.05,0-28.06,8.13-28.06,20.7,0,14.65,13.89,17.54,23.09,19.45,4,.83,8.54,1.78,8.54,3.27s-3.77,1.69-6.02,1.69c-4.71,0-10.12-1.21-14.85-3.33-1.3-.58-2.74-.62-4.06-.12-1.3.5-2.33,1.48-2.89,2.75l-3.13,7.09h0c-.56,1.28-.6,2.7-.09,4,.51,1.31,1.51,2.35,2.81,2.92,6.14,2.69,14.18,4.23,22.06,4.23,20.71,0,28.06-11.15,28.06-20.7,0-14.59-14.01-17.38-23.28-19.23Z"/>
    <path class="cls-1" d="m455.45,153.07l-6.55-5.84c-2-1.79-5.07-1.78-6.99.03-2.73,2.57-5.76,3.82-9.26,3.82-7.28,0-11.99-5.06-11.99-12.89s4.71-12.88,11.99-12.88c3.5,0,6.53,1.25,9.26,3.82,1.92,1.8,4.99,1.81,6.99.03l6.54-5.84c1.09-.97,1.73-2.36,1.76-3.81.03-1.44-.51-2.78-1.53-3.78-5.93-5.79-14.23-8.85-24-8.85-19.29,0-33.29,13.17-33.29,31.33s14,31.33,33.29,31.33c9.77,0,18.07-3.06,24-8.85,1.02-1,1.56-2.34,1.53-3.78-.03-1.45-.67-2.84-1.76-3.81Z"/>
    <path class="cls-1" d="m524.23,160.89l-21.68-49.59c-.83-1.9-2.71-3.13-4.79-3.13h-13.97c-2.08,0-3.96,1.23-4.79,3.13l-21.68,49.59c-.71,1.62-.55,3.47.42,4.96.97,1.48,2.6,2.37,4.38,2.37h11.17c2.15,0,4.11-1.35,4.88-3.35l1.96-5.09c.35-.92,1.25-1.53,2.23-1.53h16.51c.98,0,1.88.62,2.23,1.53l1.96,5.09c.77,2,2.73,3.35,4.88,3.35h11.5c1.77,0,3.41-.88,4.38-2.37.97-1.48,1.12-3.33.42-4.96Zm-31.64-20.42c-.45.66-1.17,1.04-1.97,1.04s-1.52-.38-1.97-1.04c-.45-.66-.55-1.47-.26-2.21.37-.96,1.21-1.53,2.23-1.53s1.86.57,2.23,1.53c.29.75.19,1.55-.26,2.22Z"/>
  </g>
</svg>